<svg width="187" height="40" viewBox="0 0 187 40" fill="none" xmlns="http://www.w3.org/2000/svg">
<path d="M52.8504 18.4379H50.5262V28.9474H46.2062V18.4379H44.6399V14.8505H46.2062V14.4463C46.2062 12.7116 46.703 11.3979 47.6967 10.5053C48.6904 9.59579 50.1473 9.14105 52.0673 9.14105C52.3873 9.14105 52.6231 9.14947 52.7746 9.16632V12.8295C51.9494 12.7789 51.3683 12.8968 51.0315 13.1832C50.6946 13.4695 50.5262 13.9832 50.5262 14.7242V14.8505H52.8504V18.4379ZM60.2762 29.1495C58.8952 29.1495 57.6488 28.8547 56.5373 28.2653C55.4425 27.6758 54.5752 26.8337 53.9352 25.7389C53.312 24.6442 53.0004 23.3642 53.0004 21.8989C53.0004 20.4505 53.3204 19.1789 53.9604 18.0842C54.6004 16.9726 55.4762 16.1221 56.5878 15.5326C57.6994 14.9432 58.9457 14.6484 60.3267 14.6484C61.7078 14.6484 62.9541 14.9432 64.0657 15.5326C65.1773 16.1221 66.0531 16.9726 66.6931 18.0842C67.3331 19.1789 67.6531 20.4505 67.6531 21.8989C67.6531 23.3474 67.3246 24.6274 66.6678 25.7389C66.0278 26.8337 65.1436 27.6758 64.0152 28.2653C62.9036 28.8547 61.6573 29.1495 60.2762 29.1495ZM60.2762 25.4105C61.1015 25.4105 61.8004 25.1074 62.3731 24.5011C62.9625 23.8947 63.2573 23.0274 63.2573 21.8989C63.2573 20.7705 62.9709 19.9032 62.3983 19.2968C61.8425 18.6905 61.152 18.3874 60.3267 18.3874C59.4846 18.3874 58.7857 18.6905 58.2299 19.2968C57.6741 19.8863 57.3962 20.7537 57.3962 21.8989C57.3962 23.0274 57.6657 23.8947 58.2046 24.5011C58.7604 25.1074 59.4509 25.4105 60.2762 25.4105ZM76.7804 25.2842V28.9474H74.5825C73.0162 28.9474 71.7952 28.5684 70.9194 27.8105C70.0436 27.0358 69.6057 25.7811 69.6057 24.0463V18.4379H67.8878V14.8505H69.6057V11.4147H73.9257V14.8505H76.7552V18.4379H73.9257V24.0968C73.9257 24.5179 74.0267 24.8211 74.2288 25.0063C74.4309 25.1916 74.7678 25.2842 75.2394 25.2842H76.7804ZM84.5825 29.1495C83.2015 29.1495 81.9552 28.8547 80.8436 28.2653C79.7488 27.6758 78.8815 26.8337 78.2415 25.7389C77.6183 24.6442 77.3067 23.3642 77.3067 21.8989C77.3067 20.4505 77.6267 19.1789 78.2667 18.0842C78.9067 16.9726 79.7825 16.1221 80.8941 15.5326C82.0057 14.9432 83.252 14.6484 84.633 14.6484C86.0141 14.6484 87.2604 14.9432 88.372 15.5326C89.4836 16.1221 90.3594 16.9726 90.9994 18.0842C91.6394 19.1789 91.9594 20.4505 91.9594 21.8989C91.9594 23.3474 91.6309 24.6274 90.9741 25.7389C90.3341 26.8337 89.4499 27.6758 88.3215 28.2653C87.2099 28.8547 85.9636 29.1495 84.5825 29.1495ZM84.5825 25.4105C85.4078 25.4105 86.1067 25.1074 86.6794 24.5011C87.2688 23.8947 87.5636 23.0274 87.5636 21.8989C87.5636 20.7705 87.2773 19.9032 86.7046 19.2968C86.1488 18.6905 85.4583 18.3874 84.633 18.3874C83.7909 18.3874 83.092 18.6905 82.5362 19.2968C81.9804 19.8863 81.7025 20.7537 81.7025 21.8989C81.7025 23.0274 81.972 23.8947 82.5109 24.5011C83.0667 25.1074 83.7573 25.4105 84.5825 25.4105ZM97.5504 16.8463C97.9546 16.1895 98.5357 15.6589 99.2936 15.2547C100.051 14.8505 100.919 14.6484 101.896 14.6484C103.058 14.6484 104.11 14.9432 105.054 15.5326C105.997 16.1221 106.738 16.9642 107.277 18.0589C107.833 19.1537 108.11 20.4253 108.11 21.8737C108.11 23.3221 107.833 24.6021 107.277 25.7137C106.738 26.8084 105.997 27.6589 105.054 28.2653C104.11 28.8547 103.058 29.1495 101.896 29.1495C100.902 29.1495 100.035 28.9558 99.2936 28.5684C98.5525 28.1642 97.9715 27.6337 97.5504 26.9768V28.9474H93.2304V10.2526H97.5504V16.8463ZM103.715 21.8737C103.715 20.7958 103.411 19.9537 102.805 19.3474C102.216 18.7242 101.483 18.4126 100.607 18.4126C99.7483 18.4126 99.0157 18.7242 98.4094 19.3474C97.8199 19.9705 97.5252 20.8211 97.5252 21.8989C97.5252 22.9768 97.8199 23.8274 98.4094 24.4505C99.0157 25.0737 99.7483 25.3853 100.607 25.3853C101.466 25.3853 102.199 25.0737 102.805 24.4505C103.411 23.8105 103.715 22.9516 103.715 21.8737ZM111.528 13.3853C110.77 13.3853 110.147 13.1663 109.659 12.7284C109.187 12.2737 108.951 11.7179 108.951 11.0611C108.951 10.3874 109.187 9.83158 109.659 9.39368C110.147 8.93895 110.77 8.71158 111.528 8.71158C112.269 8.71158 112.876 8.93895 113.347 9.39368C113.836 9.83158 114.08 10.3874 114.08 11.0611C114.08 11.7179 113.836 12.2737 113.347 12.7284C112.876 13.1663 112.269 13.3853 111.528 13.3853ZM113.676 14.8505V28.9474H109.356V14.8505H113.676ZM124.375 14.6989C126.025 14.6989 127.339 15.2379 128.316 16.3158C129.309 17.3768 129.806 18.8421 129.806 20.7116V28.9474H125.511V21.2926C125.511 20.3495 125.267 19.6168 124.779 19.0947C124.29 18.5726 123.634 18.3116 122.808 18.3116C121.983 18.3116 121.326 18.5726 120.838 19.0947C120.349 19.6168 120.105 20.3495 120.105 21.2926V28.9474H115.785V14.8505H120.105V16.72C120.543 16.0968 121.133 15.6084 121.874 15.2547C122.615 14.8842 123.448 14.6989 124.375 14.6989ZM130.928 21.8737C130.928 20.4253 131.198 19.1537 131.737 18.0589C132.293 16.9642 133.042 16.1221 133.985 15.5326C134.928 14.9432 135.981 14.6484 137.143 14.6484C138.069 14.6484 138.911 14.8421 139.669 15.2295C140.444 15.6168 141.05 16.1389 141.488 16.7958V10.2526H145.808V28.9474H141.488V26.9263C141.084 27.6 140.503 28.1389 139.745 28.5432C139.004 28.9474 138.137 29.1495 137.143 29.1495C135.981 29.1495 134.928 28.8547 133.985 28.2653C133.042 27.6589 132.293 26.8084 131.737 25.7137C131.198 24.6021 130.928 23.3221 130.928 21.8737ZM141.488 21.8989C141.488 20.8211 141.185 19.9705 140.579 19.3474C139.989 18.7242 139.265 18.4126 138.406 18.4126C137.547 18.4126 136.815 18.7242 136.208 19.3474C135.619 19.9537 135.324 20.7958 135.324 21.8737C135.324 22.9516 135.619 23.8105 136.208 24.4505C136.815 25.0737 137.547 25.3853 138.406 25.3853C139.265 25.3853 139.989 25.0737 140.579 24.4505C141.185 23.8274 141.488 22.9768 141.488 21.8989ZM161.201 21.6716C161.201 22.0758 161.176 22.4968 161.125 22.9347H151.348C151.416 23.8105 151.694 24.4842 152.182 24.9558C152.687 25.4105 153.302 25.6379 154.026 25.6379C155.104 25.6379 155.854 25.1832 156.275 24.2737H160.873C160.637 25.2 160.207 26.0337 159.584 26.7747C158.978 27.5158 158.211 28.0968 157.285 28.5179C156.359 28.9389 155.323 29.1495 154.178 29.1495C152.797 29.1495 151.567 28.8547 150.489 28.2653C149.411 27.6758 148.569 26.8337 147.963 25.7389C147.357 24.6442 147.054 23.3642 147.054 21.8989C147.054 20.4337 147.348 19.1537 147.938 18.0589C148.544 16.9642 149.386 16.1221 150.464 15.5326C151.542 14.9432 152.78 14.6484 154.178 14.6484C155.542 14.6484 156.755 14.9347 157.816 15.5074C158.877 16.08 159.702 16.8968 160.291 17.9579C160.898 19.0189 161.201 20.2568 161.201 21.6716ZM156.78 20.5347C156.78 19.7937 156.527 19.2042 156.022 18.7663C155.517 18.3284 154.885 18.1095 154.127 18.1095C153.403 18.1095 152.788 18.32 152.283 18.7411C151.795 19.1621 151.491 19.76 151.374 20.5347H156.78ZM166.779 17.2C167.284 16.4253 167.916 15.8189 168.674 15.3811C169.431 14.9263 170.274 14.6989 171.2 14.6989V19.2716H170.013C168.935 19.2716 168.126 19.5074 167.587 19.9789C167.048 20.4337 166.779 21.2421 166.779 22.4042V28.9474H162.459V14.8505H166.779V17.2Z" fill="#F4F4F5"/>
<path d="M23.3222 9.47368H31.7054C32.2905 9.47363 32.8692 9.59552 33.4045 9.83157C33.9399 10.0676 34.4202 10.4126 34.8147 10.8447C35.2093 11.2767 35.5095 11.7862 35.6963 12.3407C35.883 12.8952 35.952 13.4826 35.8991 14.0653L34.558 28.8021C34.463 29.8483 33.9803 30.821 33.2047 31.5296C32.4292 32.2381 31.4169 32.6312 30.3664 32.6316H8.57906C7.52864 32.6312 6.51627 32.2381 5.74075 31.5296C4.96522 30.821 4.48255 29.8483 4.38748 28.8021L3.04643 14.0653C2.95672 13.09 3.21147 12.1143 3.76643 11.3074L3.68433 9.47368C3.68433 8.357 4.12793 7.286 4.91756 6.49636C5.70717 5.70678 6.77817 5.26315 7.89485 5.26315H15.6254C16.742 5.26342 17.8128 5.70715 18.6022 6.49684L20.3454 8.24C21.1348 9.02968 22.2056 9.47342 23.3222 9.47368ZM5.80222 9.72631C6.25275 9.5621 6.73696 9.47368 7.24222 9.47368H18.6022L17.1138 7.98526C16.7191 7.59042 16.1837 7.36852 15.6254 7.36842H7.89485C7.34338 7.36831 6.81385 7.58463 6.42017 7.97084C6.02648 8.35705 5.80006 8.88231 5.78959 9.43368L5.80222 9.72631Z" fill="#F4F4F5"/>
<path d="M20.0572 13.9474C18.8671 13.9474 17.746 14.2751 16.7629 14.8098L22.3167 18.8458L23.6103 14.965C22.5755 14.3441 21.3509 13.9474 20.0572 13.9474ZM15.314 15.8964C14.0031 17.1555 13.158 18.8976 13.158 20.8639C13.158 21.2951 13.1924 21.6918 13.2614 22.1057L18.5911 18.2767L15.2967 15.8964H15.314ZM25.0247 16.1206L22.9204 22.5887H26.6978C26.8357 22.0368 26.9737 21.4676 26.9737 20.8639C26.9737 19.0183 26.2149 17.3625 25.0247 16.1206ZM16.8836 21.6745L13.8651 23.8306C14.8138 25.7796 16.6249 27.263 18.8326 27.6597L16.8836 21.6745ZM19.5743 24.3135L20.6609 27.7114C22.9549 27.5044 24.904 26.1936 25.9906 24.3135H19.5743Z" fill="#18181B"/>
</svg>
